<svg version="1.1" viewBox="0.0 0.0 342.5223097112861 327.1023622047244" fill="none" stroke="none" stroke-linecap="square" stroke-miterlimit="10" xmlns:xlink="http://www.w3.org/1999/xlink" xmlns="http://www.w3.org/2000/svg"><clipPath id="p.0"><path d="m0 0l342.5223 0l0 327.10236l-342.5223 0l0 -327.10236z" clip-rule="nonzero"/></clipPath><g clip-path="url(#p.0)"><path fill="#000000" fill-opacity="0.0" d="m0 0l342.5223 0l0 327.10236l-342.5223 0z" fill-rule="evenodd"/><path fill="#000000" fill-opacity="0.0" d="m48.362206 -57.637794l203.55905 0l0 374.89764l-203.55905 0z" fill-rule="evenodd"/><path fill="#ff0000" d="m159.7372 214.19658q12.015625 0 19.78125 -2.78125q7.78125 -2.796875 11.59375 -8.953125q3.828125 -6.171875 3.828125 -15.84375q0 -8.796875 -4.109375 -14.515625q-4.109375 -5.71875 -11.453125 -9.53125q-7.328125 -3.828125 -17.59375 -6.90625q-10.265625 -3.078125 -23.171875 -6.296875q-12.609367 -3.53125 -24.203117 -8.078125q-11.578125 -4.546875 -20.53125 -11.875q-8.9375 -7.3281174 -14.21875 -18.765617q-5.28125 -11.4375 -5.28125 -28.453125q0 -20.828125 9.09375 -34.609375q9.09375 -13.796875 25.375 -20.984375q16.28125 -7.1875 37.984367 -7.1875q18.765625 0 31.515625 5.4375q12.765625 5.421875 20.828125 17.015625q8.078125 11.578125 12.1875 30.9375l-11.15625 -9.96875l5.578125 -39.609375l22.59375 0l0 59.546875l-26.40625 0q-3.21875 -12.609375 -10.40625 -21.546875q-7.1875 -8.953125 -17.3125 -13.5q-10.125 -4.546875 -22.734375 -4.546875q-11.140625 0 -18.1875 2.9375q-7.0312424 2.921875 -10.265617 8.5q-3.21875 5.578125 -3.21875 13.78125q0 8.21875 3.65625 13.5q3.671875 5.28125 10.562492 8.65625q6.890625 3.375 16.5625 5.875q9.6875 2.484375 21.421875 5.40625q13.5 3.234375 25.96875 7.640625q12.46875 4.390625 22.28125 11.734375q9.828125 7.3281174 15.40625 18.765617q5.578125 11.4375 5.578125 28.453125q0 22.578125 -9.25 38.125q-9.234375 15.546875 -26.546875 23.46875q-17.296875 7.921875 -41.9375 7.921875q-19.65625 0 -35.203125 -5.421875q-15.546867 -5.421875 -26.109367 -18.625q-10.5625 -13.203125 -14.953125 -36.078125l11.4375 9.375l-5.578125 46.359375l-23.75 0l0 -68.0625l28.453125 0q4.6875 16.71875 13.78125 27.578125q9.09375 10.84375 21.406242 15.984375q12.328125 5.140625 26.703125 5.140625z" fill-rule="nonzero"/><path fill="#000000" fill-opacity="0.0" d="m120.3832 19.209974l145.22833 0l0 374.89764l-145.22833 0z" fill-rule="evenodd"/><path fill="#ff9900" d="m200.07071 119.15373l0 167.78123q0 2.34375 2.484375 3.671875q2.5 1.3125 6.453125 2.046875q3.96875 0.734375 8.953125 0.875q5.0 0.140625 9.984375 0.140625l5.5625 0l0 16.140625l-88.578125 0l0 -16.140625l3.21875 0q10.859375 0 17.890625 -2.046875q7.046875 -2.046875 7.046875 -8.5l0 -155.17186q0 -6.453125 -7.046875 -8.5q-7.03125 -2.0625 -17.890625 -2.0625l-3.21875 0l0 -15.84375l157.8125 0l0 58.375l-17.609375 0l-3.21875 -27.859375q-0.59375 -5.28125 -4.40625 -8.0625q-3.8125 -2.796875 -11.734375 -3.8125q-7.90625 -1.03125 -20.53125 -1.03125l-45.171875 0zm-6.734375 78.015625q13.78125 -0.578125 27.421875 -1.15625q13.640625 -0.59375 27.28125 -1.1875q13.640625 -0.59375 27.125 -0.875l0 23.171875q-13.484375 -0.890625 -27.125 -1.46875q-13.640625 -0.59375 -27.28125 -1.171875q-13.640625 -0.59375 -27.421875 -0.890625l0 -16.421875z" fill-rule="nonzero"/></g></svg>